<svg xmlns="http://www.w3.org/2000/svg" version="1.1" xmlns:xlink="http://www.w3.org/1999/xlink" xmlns:svgjs="http://svgjs.dev/svgjs" width="2000" height="424" viewBox="0 0 2000 424"><g transform="matrix(1,0,0,1,-1.2121212121212466,0.8270185998732416)"><svg viewBox="0 0 396 84" data-background-color="#ffffff" preserveAspectRatio="xMidYMid meet" height="424" width="2000" xmlns="http://www.w3.org/2000/svg" xmlns:xlink="http://www.w3.org/1999/xlink"><g id="tight-bounds" transform="matrix(1,0,0,1,0.2400000000000091,-0.16384330752205756)"><svg viewBox="0 0 395.52 84.3276866150441" height="84.3276866150441" width="395.52"><g><svg viewBox="0 0 673.8692818279401 143.67373993095512" height="84.3276866150441" width="395.52"><g transform="matrix(1,0,0,1,278.34928182794016,0)"><svg viewBox="0 0 395.52 143.67373993095512" height="143.67373993095512" width="395.52"><g id="textblocktransform"><svg viewBox="0 0 395.52 143.67373993095512" height="143.67373993095512" width="395.52" id="textblock"><g><svg viewBox="0 0 395.52 143.67373993095512" height="143.67373993095512" width="395.52"><g transform="matrix(1,0,0,1,0,0)"><svg width="395.52" viewBox="1.1 -36.25 130.34 47.35" height="143.67373993095512" data-palette-color="#29231d"><path d="M1.1-8.15L1.1-8.15Q1.1-11.6 2.02-14.7 2.95-17.8 4.75-20.15 6.55-22.5 9.18-23.88 11.8-25.25 15.2-25.25L15.2-25.25Q19.4-25.25 21.25-23.55 23.1-21.85 23.1-19.1L23.1-19.1Q23.1-17 22.08-15.2 21.05-13.4 19.18-12.05 17.3-10.7 14.73-9.85 12.15-9 9.1-8.7L9.1-8.7Q9.1-8.5 9.08-8.18 9.05-7.85 9.05-7.6L9.05-7.6Q9.05-6.35 9.75-5.8 10.45-5.25 11.5-5.25L11.5-5.25Q12.2-5.25 13.43-5.55 14.65-5.85 15.9-6.25L15.9-6.25Q17.35-6.7 18.95-7.3L18.95-7.3 20.65-2.2Q18.95-1.35 17.15-0.75L17.15-0.75Q15.6-0.2 13.73 0.23 11.85 0.65 10.05 0.65L10.05 0.65Q7.5 0.65 5.8-0.1 4.1-0.85 3.05-2.1 2-3.35 1.55-4.93 1.1-6.5 1.1-8.15ZM14-19.45L14-19.45Q12.7-19.45 11.6-17.98 10.5-16.5 9.9-14.15L9.9-14.15Q12.6-14.5 14.03-15.73 15.45-16.95 15.45-18.1L15.45-18.1Q15.45-19.45 14-19.45ZM45.15 0L43.8-15.85Q43.75-16.5 43.65-17.88 43.55-19.25 43.55-20.45L43.55-20.45Q43.35-19.85 43.07-19.18 42.8-18.5 42.52-17.85 42.25-17.2 42.02-16.68 41.8-16.15 41.65-15.9L41.65-15.9 34.05 0 27.5 0 24.3-33.45 32.75-33.45 33.35-16.1Q33.35-15.25 33.37-13.85 33.4-12.45 33.4-11.3L33.4-11.3Q33.55-11.8 33.8-12.5 34.05-13.2 34.3-13.88 34.55-14.55 34.8-15.15 35.05-15.75 35.2-16.1L35.2-16.1 42.75-33.45 50.15-33.45 51-15.5Q51-15.15 51.02-14.58 51.05-14 51.07-13.38 51.1-12.75 51.1-12.08 51.1-11.4 51.1-10.85L51.1-10.85Q51.3-11.4 51.55-12.08 51.8-12.75 52.07-13.4 52.35-14.05 52.57-14.63 52.8-15.2 52.95-15.5L52.95-15.5 60.9-33.85 68.7-32 52.05 0 45.15 0ZM79.34-36.25L77.95-28.9Q77.5-26.35 76.25-23.63 75-20.9 73.7-17.8L73.7-17.8Q74.75-19.9 75.8-21.3 76.84-22.7 77.97-23.55 79.09-24.4 80.32-24.75 81.55-25.1 83.05-25.1L83.05-25.1Q86.34-25.1 87.82-23.5 89.3-21.9 89.3-18.9L89.3-18.9Q89.3-16.8 88.82-14.95 88.34-13.1 87.8-11.45 87.25-9.8 86.77-8.3 86.3-6.8 86.3-5.4L86.3-5.4Q86.3-4.5 86.42-3.08 86.55-1.65 86.95 0L86.95 0 79.15 0Q78.9-1.5 78.84-2.33 78.8-3.15 78.8-3.8L78.8-3.8Q78.8-5.6 79.22-7.33 79.65-9.05 80.15-10.73 80.65-12.4 81.07-14 81.5-15.6 81.5-17.15L81.5-17.15Q81.5-17.85 81.22-18.28 80.95-18.7 80.3-18.7L80.3-18.7Q79.34-18.7 78.37-17.7 77.4-16.7 76.52-15.13 75.65-13.55 75-11.68 74.34-9.8 74-8.1L74-8.1 72.39 0 64.64 0 71.59-35.25 79.34-36.25ZM101.44-36.2L101.44-36.2Q103.59-36.2 104.59-35.13 105.59-34.05 105.59-32.2L105.59-32.2Q105.59-30.4 104.32-29.08 103.04-27.75 100.89-27.75L100.89-27.75Q98.74-27.75 97.74-28.85 96.74-29.95 96.74-31.7L96.74-31.7Q96.74-33.5 97.99-34.85 99.24-36.2 101.44-36.2ZM97.79 0.35L97.79 0.35Q95.14 0.35 93.69-0.98 92.24-2.3 92.24-4.5L92.24-4.5Q92.24-4.85 92.29-5.25 92.34-5.65 92.44-6.05L92.44-6.05 96.14-24.5 103.79-24.5 100.54-7.95Q100.44-7.3 100.39-7.1 100.34-6.9 100.34-6.65L100.34-6.65Q100.34-6.3 100.44-6.03 100.54-5.75 100.99-5.75L100.99-5.75Q101.24-5.75 101.62-5.83 101.99-5.9 102.32-6 102.64-6.1 102.92-6.2 103.19-6.3 103.24-6.3L103.24-6.3 103.24-0.9Q102.44-0.5 101.54-0.25L101.54-0.25Q100.79 0 99.82 0.18 98.84 0.35 97.79 0.35ZM105.04 11.1L109.64-12.8Q109.89-14.05 110.02-15.13 110.14-16.2 110.14-17.1L110.14-17.1Q110.14-19.45 109.52-20.85 108.89-22.25 108.59-22.75L108.59-22.75 114.89-25.2Q115.59-24.4 115.94-23.33 116.29-22.25 116.29-21.05L116.29-21.05Q116.29-20.5 116.24-19.73 116.19-18.95 115.94-17.45L115.94-17.45 116.59-18.85Q118.19-22.35 120.22-23.73 122.24-25.1 124.59-25.1L124.59-25.1Q126.44-25.1 127.77-24.33 129.09-23.55 129.89-22.33 130.69-21.1 131.06-19.55 131.44-18 131.44-16.5L131.44-16.5Q131.44-12.9 130.52-9.83 129.59-6.75 127.77-4.45 125.94-2.15 123.27-0.85 120.59 0.45 117.09 0.45L117.09 0.45Q116.44 0.45 115.87 0.4 115.29 0.35 114.74 0.25L114.74 0.25 112.84 10.1 105.04 11.1ZM116.29-7.15L115.89-5.5Q116.54-5.3 117.44-5.3L117.44-5.3Q119.14-5.3 120.29-6.58 121.44-7.85 122.12-9.65 122.79-11.45 123.07-13.4 123.34-15.35 123.34-16.65L123.34-16.65Q123.34-17.7 123.12-18.45 122.89-19.2 122.19-19.2L122.19-19.2Q121.44-19.2 120.62-18.15 119.79-17.1 118.99-15.4 118.19-13.7 117.49-11.53 116.79-9.35 116.29-7.15L116.29-7.15Z" opacity="1" transform="matrix(1,0,0,1,0,0)" fill="#29231d" class="wordmark-text-0" data-fill-palette-color="primary" id="text-0"></path></svg></g></svg></g></svg></g></svg></g><g transform="matrix(1,0,0,1,0,26.751434482810502)"><svg viewBox="0 0 244.43135999999998 90.17087096533412" height="90.17087096533412" width="244.43135999999998"><g><svg xmlns="http://www.w3.org/2000/svg" xmlns:xlink="http://www.w3.org/1999/xlink" version="1.1" x="0" y="0" viewBox="0.2962725501305952 33.94692138280563 99.40639946256867 36.67107861719437" enable-background="new 0 33.947 100 36.669" xml:space="preserve" width="244.43135999999998" height="90.17087096533412" class="icon-icon-0" data-fill-palette-color="accent" id="icon-0"><g fill="#255cff" data-fill-palette-color="accent"><path d="M15.524 55.357c-4.213 0-7.629 3.418-7.629 7.631s3.416 7.63 7.629 7.63c4.215 0 7.63-3.417 7.63-7.63S19.738 55.357 15.524 55.357zM15.524 66.189c-1.778 0-3.219-1.441-3.219-3.22s1.441-3.221 3.219-3.221c1.777 0 3.219 1.442 3.219 3.221C18.742 64.748 17.301 66.189 15.524 66.189z" fill="#255cff" data-fill-palette-color="accent"></path><path d="M82.53 55.355c-4.215 0-7.632 3.417-7.632 7.629 0 4.214 3.417 7.631 7.632 7.631 4.212 0 7.63-3.417 7.63-7.631C90.16 58.772 86.742 55.355 82.53 55.355zM82.53 66.189c-1.778 0-3.222-1.441-3.222-3.22s1.443-3.221 3.222-3.221 3.223 1.442 3.223 3.221S84.309 66.189 82.53 66.189z" fill="#255cff" data-fill-palette-color="accent"></path><path d="M78.23 44.515c0 0-18.764-8.75-24.754-10.018-5.987-1.268-26.597-0.115-28.554 1.151l-11.515 5.64L2.125 46.815 0.298 57.465c0 0-0.05 6.318 0.388 7.773h5.527l0.071-2.25c0-5.103 4.138-9.24 9.243-9.24 5.103 0 9.238 4.138 9.238 9.24l0.158 2.25h48.359l0.007-2.83c0-5.103 3.856-8.87 8.959-8.87s9.523 3.768 9.523 8.87l0.19 2.616c0 0 5.845 0.33 7.688-0.361 0 0 0.69-9.787-2.878-13.357C93.603 48.308 87.213 46.44 78.23 44.515zM25.956 45.896c0 0 2.363-5.01 4.943-6.924 1.911-1.627 12.446-1.583 12.446-1.583l0.389 9.715L25.956 45.896zM71.613 48.198l-24.698-0.978-0.577-9.846c9.154-0.344 19.576 4.549 25.563 8.06C77.89 48.946 71.613 48.198 71.613 48.198z" fill="#255cff" data-fill-palette-color="accent"></path></g></svg></g></svg></g></svg></g><defs></defs></svg><rect width="395.52" height="84.3276866150441" fill="none" stroke="none" visibility="hidden"></rect></g></svg></g></svg>